<?xml version="1.0" encoding="UTF-8"?>
<svg width="512" height="512" viewBox="0 0 512 512" fill="none" xmlns="http://www.w3.org/2000/svg">
  <rect width="512" height="512" rx="100" fill="#0EA5E9"/>
  <path d="M256 128C256 114.745 266.745 104 280 104H360C373.255 104 384 114.745 384 128V384C384 397.255 373.255 408 360 408H280C266.745 408 256 397.255 256 384V128Z" fill="white"/>
  <path d="M128 128C128 114.745 138.745 104 152 104H232C245.255 104 256 114.745 256 128V384C256 397.255 245.255 408 232 408H152C138.745 408 128 397.255 128 384V128Z" fill="white" fill-opacity="0.8"/>
</svg>
